<svg width="70" height="12" viewBox="0 0 70 12" fill="none" xmlns="http://www.w3.org/2000/svg">
<g clip-path="url(#clip0_16_2)">
<path d="M1.768 1.624H4.468C5.596 1.624 6.432 1.984 6.976 2.704C7.52 3.424 7.792 4.46 7.792 5.812C7.792 7.164 7.52 8.2 6.976 8.92C6.432 9.64 5.596 10 4.468 10H1.768V1.624ZM4.348 8.584C4.884 8.584 5.276 8.412 5.524 8.068C5.772 7.724 5.896 7.224 5.896 6.568V5.044C5.896 4.396 5.772 3.9 5.524 3.556C5.276 3.212 4.884 3.04 4.348 3.04H3.544V8.584H4.348ZM9.08331 8.62H10.5113V5.188H9.08331V3.808H12.2873V5.56H12.3713C12.4273 5.336 12.5033 5.12 12.5993 4.912C12.7033 4.696 12.8313 4.508 12.9833 4.348C13.1433 4.18 13.3353 4.048 13.5593 3.952C13.7833 3.856 14.0473 3.808 14.3513 3.808H14.9393V5.44H13.6193C13.1793 5.44 12.8473 5.572 12.6233 5.836C12.3993 6.092 12.2873 6.408 12.2873 6.784V8.62H14.3273V10H9.08331V8.62ZM19.3746 3.016C18.9746 3.016 18.6946 2.936 18.5346 2.776C18.3826 2.608 18.3066 2.408 18.3066 2.176V1.828C18.3066 1.588 18.3826 1.388 18.5346 1.228C18.6946 1.068 18.9746 0.987999 19.3746 0.987999C19.7746 0.987999 20.0506 1.068 20.2026 1.228C20.3626 1.388 20.4426 1.588 20.4426 1.828V2.176C20.4426 2.408 20.3626 2.608 20.2026 2.776C20.0506 2.936 19.7746 3.016 19.3746 3.016ZM16.5186 8.62H18.4866V5.188H16.5186V3.808H20.2626V8.62H22.0866V10H16.5186V8.62ZM23.4379 8.62H25.2619V5.188H23.3179V3.808H25.2619V2.908C25.2619 2.38 25.4139 1.952 25.7179 1.624C26.0299 1.288 26.5099 1.12 27.1579 1.12H29.2579V2.5H27.0379V3.808H29.2579V5.188H27.0379V8.62H28.9819V10H23.4379V8.62ZM33.8613 10C33.2213 10 32.7453 9.832 32.4333 9.496C32.1213 9.16 31.9653 8.732 31.9653 8.212V5.188H30.2853V3.808H31.3773C31.6413 3.808 31.8293 3.756 31.9413 3.652C32.0533 3.548 32.1093 3.356 32.1093 3.076V1.624H33.7413V3.808H36.1533V5.188H33.7413V8.62H36.1533V10H33.8613Z" fill="white"/>
<path d="M38.1246 1.11H41.3166L41.7926 7.13L44.7046 1.11H46.0906L41.9466 10H38.6426L38.1246 1.11ZM47.8133 10H44.9713L46.2453 3.98H49.1153L47.8133 10ZM49.4793 2.146C49.4793 2.36067 49.4327 2.54733 49.3393 2.706C49.2553 2.86467 49.1387 3 48.9893 3.112C48.8493 3.224 48.686 3.308 48.4993 3.364C48.3127 3.42 48.1213 3.448 47.9253 3.448C47.552 3.448 47.2393 3.35933 46.9873 3.182C46.7353 3.00467 46.6093 2.72467 46.6093 2.342C46.6093 2.13667 46.6513 1.95467 46.7353 1.796C46.8193 1.628 46.9313 1.49267 47.0713 1.39C47.2207 1.278 47.3887 1.194 47.5753 1.138C47.7713 1.082 47.972 1.054 48.1773 1.054C48.5413 1.054 48.8493 1.14267 49.1013 1.32C49.3533 1.49733 49.4793 1.77267 49.4793 2.146ZM52.2649 7.186C52.2276 7.39133 52.1996 7.58733 52.1809 7.774C52.1716 7.96067 52.1669 8.12867 52.1669 8.278C52.1669 8.362 52.1716 8.45533 52.1809 8.558C52.1902 8.66067 52.2089 8.75867 52.2369 8.852C52.2742 8.936 52.3209 9.01067 52.3769 9.076C52.4422 9.132 52.5309 9.16 52.6429 9.16C52.7269 9.16 52.8202 9.132 52.9229 9.076C53.0349 9.02 53.1422 8.94067 53.2449 8.838C53.3569 8.73533 53.4596 8.60933 53.5529 8.46C53.6556 8.31067 53.7349 8.14267 53.7909 7.956H56.0869L55.7229 9.454C55.5362 9.57533 55.3216 9.678 55.0789 9.762C54.8362 9.846 54.5796 9.916 54.3089 9.972C54.0382 10.0187 53.7629 10.0513 53.4829 10.07C53.2029 10.098 52.9369 10.112 52.6849 10.112C52.2182 10.112 51.7842 10.07 51.3829 9.986C50.9816 9.902 50.6316 9.75733 50.3329 9.552C50.0342 9.34667 49.7962 9.076 49.6189 8.74C49.4509 8.39467 49.3669 7.97 49.3669 7.466C49.3669 7.00867 49.4369 6.56067 49.5769 6.122C49.7262 5.68333 49.9689 5.296 50.3049 4.96C50.6502 4.61467 51.1076 4.33933 51.6769 4.134C52.2556 3.92867 52.9742 3.826 53.8329 3.826C54.7662 3.826 55.4662 3.97067 55.9329 4.26C56.4089 4.54933 56.6469 5.002 56.6469 5.618C56.6469 5.87 56.6096 6.14533 56.5349 6.444C56.4602 6.73333 56.3482 6.98067 56.1989 7.186H52.2649ZM54.1269 5.52C54.1269 5.23067 54.0802 5.03467 53.9869 4.932C53.8936 4.82933 53.7816 4.778 53.6509 4.778C53.5016 4.778 53.3616 4.82933 53.2309 4.932C53.1096 5.02533 52.9976 5.156 52.8949 5.324C52.7922 5.48267 52.6989 5.66933 52.6149 5.884C52.5309 6.08933 52.4609 6.30867 52.4049 6.542H54.0009C54.0196 6.43 54.0382 6.31333 54.0569 6.192C54.0756 6.08933 54.0896 5.97733 54.0989 5.856C54.1176 5.73467 54.1269 5.62267 54.1269 5.52ZM57.1948 3.98H60.1628L60.6528 8.096L62.3468 3.98H65.0208L65.4968 8.096L67.1908 3.98H68.6748L65.8888 10H62.9628L62.4448 6.948L61.0308 10H58.1048L57.1948 3.98Z" fill="#3DB9FF"/>
</g>
<defs>
<clipPath id="clip0_16_2">
<rect width="70" height="12" fill="white"/>
</clipPath>
</defs>
</svg>
